<svg width="17" height="17" viewBox="0 0 17 17" fill="none" xmlns="http://www.w3.org/2000/svg">
<path d="M15.6324 13.056C16.0164 13.44 16.2084 13.8773 16.2084 14.368C16.2084 14.8373 16.027 15.264 15.6644 15.648C15.3017 16.0107 14.875 16.192 14.3844 16.192C13.851 16.192 13.3924 15.968 13.0084 15.52L8.49638 10.528L3.98438 15.52C3.57904 15.9467 3.12038 16.16 2.60838 16.16C2.13904 16.16 1.72304 15.9787 1.36038 15.616C0.997708 15.2533 0.816375 14.8373 0.816375 14.368C0.816375 13.8773 1.00838 13.44 1.39238 13.056L6.06438 7.968L1.64838 3.168C1.26438 2.784 1.07238 2.34667 1.07238 1.856C1.07238 1.36533 1.25371 0.949332 1.61638 0.607999C1.97904 0.245332 2.39504 0.0639992 2.86438 0.0639992C3.37638 0.0639992 3.83504 0.277333 4.24038 0.704L8.49638 5.376L12.7524 0.704C13.1577 0.277333 13.6164 0.0639992 14.1284 0.0639992C14.619 0.0639992 15.035 0.245332 15.3764 0.607999C15.739 0.949332 15.9204 1.36533 15.9204 1.856C15.9204 2.34667 15.7284 2.784 15.3444 3.168L10.9284 7.968L15.6324 13.056Z" fill="#C70C47"/>
</svg>
