<svg width="12" height="19" viewBox="0 0 12 19" fill="none" xmlns="http://www.w3.org/2000/svg">
<path d="M5.83472 12.768C5.48272 12.768 5.20272 12.648 4.99472 12.408C4.80272 12.168 4.70672 11.848 4.70672 11.448C4.70672 10.632 4.85072 9.952 5.13872 9.408C5.44272 8.864 5.88272 8.264 6.45872 7.608C6.89072 7.112 7.20272 6.704 7.39472 6.384C7.60272 6.048 7.70672 5.672 7.70672 5.256C7.70672 4.808 7.53872 4.456 7.20272 4.2C6.88272 3.928 6.44272 3.792 5.88272 3.792C5.37072 3.792 4.89072 3.896 4.44272 4.104C4.01072 4.312 3.42672 4.632 2.69072 5.064C2.22672 5.32 1.84272 5.448 1.53872 5.448C1.20272 5.448 0.914719 5.304 0.674719 5.016C0.450719 4.712 0.338719 4.352 0.338719 3.936C0.338719 3.648 0.386719 3.408 0.482719 3.216C0.594719 3.008 0.762719 2.816 0.986719 2.64C1.69072 2.08 2.49872 1.648 3.41072 1.344C4.33872 1.024 5.26672 0.863999 6.19472 0.863999C7.18672 0.863999 8.07472 1.04 8.85872 1.392C9.65872 1.744 10.2747 2.232 10.7067 2.856C11.1547 3.464 11.3787 4.152 11.3787 4.92C11.3787 5.512 11.2587 6.056 11.0187 6.552C10.7947 7.032 10.5227 7.456 10.2027 7.824C9.88272 8.176 9.45072 8.616 8.90672 9.144C8.29872 9.704 7.84272 10.176 7.53872 10.56C7.23472 10.928 7.04272 11.344 6.96272 11.808C6.89872 12.112 6.76272 12.352 6.55472 12.528C6.36272 12.688 6.12272 12.768 5.83472 12.768ZM5.88272 18.144C5.29072 18.144 4.80272 17.952 4.41872 17.568C4.03472 17.168 3.84272 16.672 3.84272 16.08C3.84272 15.488 4.03472 15 4.41872 14.616C4.80272 14.216 5.29072 14.016 5.88272 14.016C6.45872 14.016 6.93872 14.216 7.32272 14.616C7.70672 15 7.89872 15.488 7.89872 16.08C7.89872 16.672 7.70672 17.168 7.32272 17.568C6.93872 17.952 6.45872 18.144 5.88272 18.144Z" fill="white"/>
</svg>
