<?xml version="1.0" standalone="no"?>
<!DOCTYPE svg PUBLIC "-//W3C//DTD SVG 20010904//EN"
 "http://www.w3.org/TR/2001/REC-SVG-20010904/DTD/svg10.dtd">
<svg version="1.0" xmlns="http://www.w3.org/2000/svg"
 width="360.000000pt" height="360.000000pt" viewBox="0 0 360.000000 360.000000"
 preserveAspectRatio="xMidYMid meet">

<g transform="translate(0.000000,360.000000) scale(0.100000,-0.100000)"
fill="#000000" stroke="none">
<path d="M1695 2762 c-16 -11 -132 -123 -257 -249 l-228 -229 0 -44 c1 -70 43
-110 116 -110 35 0 48 10 175 137 l138 136 3 -432 3 -433 33 -29 c55 -49 138
-36 171 28 8 15 11 153 11 444 l0 423 139 -137 c133 -132 141 -137 180 -137
51 0 89 24 107 66 26 62 12 82 -244 337 -217 217 -242 239 -278 243 -28 4 -48
0 -69 -14z"/>
<path d="M918 1661 l-33 -29 -3 -251 c-3 -211 -1 -255 13 -280 33 -64 -6 -62
871 -59 l796 3 29 33 29 32 0 256 0 256 -34 34 c-46 46 -101 48 -148 5 l-33
-29 -3 -186 -4 -186 -648 0 -649 0 -3 186 -3 186 -33 29 c-45 40 -99 40 -144
0z"/>
</g>
</svg>
